<svg id="Layer_1" data-name="Layer 1" xmlns="http://www.w3.org/2000/svg" viewBox="0 0 465.49 113.16"><defs><style>.cls-1,.cls-7{fill:#1c75bc;}.cls-2{fill:none;}.cls-3{fill:#f7941d;}.cls-4{fill:#febe23;}.cls-5{font-size:55.97px;font-family:Monoton-Regular, Monoton;}.cls-5,.cls-6{fill:#414042;}.cls-7{font-size:23.99px;font-family:Spantaran;}</style></defs><path class="cls-1" d="M44.92,46.59,168.4,34.49c-.64-10.17-8.23-9.69-8.23-9.69L40.08,42.07C29.91,44,32.33,52.56,32.33,52.56l10.49,63.6L37.49,54.34A8.56,8.56,0,0,1,44.92,46.59Z" transform="translate(-32.08 -24.8)"/><path class="cls-2" d="M44.91,59.7h0Z" transform="translate(-32.08 -24.8)"/><path class="cls-3" d="M49.44,138h75.22c-7.44-40.26-44.39-63.76-44.39-63.76,41.79,15.16,61.94,59.25,63.91,63.76h27.14C123.92,79.88,46.81,60.18,44.92,59.71v71.95C44.92,137.47,49.44,138,49.44,138Z" transform="translate(-32.08 -24.8)"/><path class="cls-1" d="M182.93,73.68V57.89c-1-7.1-7.91-7.75-7.91-7.75H53.47c-8.23.49-8.55,8.72-8.55,8.72v.84h0c80.59,13.1,129,50.09,138,57.87V102.7C177.19,99.4,140.17,79,78.9,65c0,0,44.51,1.91,104,24.1V79.45c-20-8.4-63.84-12.52-63.84-12.52C148.38,64.42,176,71.67,182.93,73.68Z" transform="translate(-32.08 -24.8)"/><polygon class="cls-4" points="12.84 34.91 12.84 34.9 12.83 34.9 12.83 34.91 12.84 34.91"/><rect class="cls-4" x="12.84" y="34.9" width="0.03"/><text class="cls-5" transform="translate(159.85 75.96)">EDGE 180</text><path class="cls-6" d="M496.37,46.34a4.55,4.55,0,0,1,0,6.16,5.25,5.25,0,0,1-6.46,0,4.55,4.55,0,0,1,0-6.16,5.25,5.25,0,0,1,6.46,0Zm-5.85.45a4.15,4.15,0,0,0,0,5.26,4.23,4.23,0,0,0,5.24,0,4.15,4.15,0,0,0,0-5.26,4.23,4.23,0,0,0-5.24,0Z" transform="translate(-32.08 -24.8)"/><text class="cls-7" transform="translate(159.85 104.96)">ENTERPRICES</text></svg>